<mxfile host="app.diagrams.net" agent="Mozilla/5.0 (Windows NT 10.0; Win64; x64) AppleWebKit/537.36 (KHTML, like Gecko) Chrome/131.0.0.0 Safari/537.36" version="25.0.1">
  <diagram name="Страница — 1" id="XoDcgVmvNnohmi8HZWg9">
    <mxGraphModel dx="2580" dy="1130" grid="1" gridSize="10" guides="1" tooltips="1" connect="1" arrows="1" fold="1" page="1" pageScale="1" pageWidth="827" pageHeight="1169" math="0" shadow="0">
      <root>
        <mxCell id="0" />
        <mxCell id="1" parent="0" />
        <mxCell id="A2Cu6Bd9uKaZjOzN5dYJ-1" value="" style="rounded=0;whiteSpace=wrap;html=1;" parent="1" vertex="1">
          <mxGeometry x="40" y="80" width="140" height="30" as="geometry" />
        </mxCell>
        <mxCell id="cIKN-_tGBrGk3SsRRnwc-5" value="" style="edgeStyle=orthogonalEdgeStyle;rounded=0;orthogonalLoop=1;jettySize=auto;html=1;exitX=1;exitY=0.5;exitDx=0;exitDy=0;" edge="1" parent="1" source="A2Cu6Bd9uKaZjOzN5dYJ-1">
          <mxGeometry relative="1" as="geometry">
            <mxPoint x="200" y="95" as="targetPoint" />
          </mxGeometry>
        </mxCell>
        <mxCell id="A2Cu6Bd9uKaZjOzN5dYJ-2" value="Список сервисов" style="text;strokeColor=none;align=center;fillColor=none;html=1;verticalAlign=middle;whiteSpace=wrap;rounded=0;" parent="1" vertex="1">
          <mxGeometry x="45" y="80" width="125" height="30" as="geometry" />
        </mxCell>
        <mxCell id="A2Cu6Bd9uKaZjOzN5dYJ-3" value="" style="rounded=0;whiteSpace=wrap;html=1;" parent="1" vertex="1">
          <mxGeometry x="40" y="110" width="140" height="30" as="geometry" />
        </mxCell>
        <mxCell id="A2Cu6Bd9uKaZjOzN5dYJ-4" value="Авторизовваный вход в систему" style="text;strokeColor=none;align=center;fillColor=none;html=1;verticalAlign=middle;whiteSpace=wrap;rounded=0;" parent="1" vertex="1">
          <mxGeometry x="40" y="110" width="130" height="30" as="geometry" />
        </mxCell>
        <mxCell id="A2Cu6Bd9uKaZjOzN5dYJ-5" value="" style="rounded=0;whiteSpace=wrap;html=1;" parent="1" vertex="1">
          <mxGeometry x="40" y="150" width="140" height="30" as="geometry" />
        </mxCell>
        <mxCell id="A2Cu6Bd9uKaZjOzN5dYJ-6" value="Список серисов" style="text;strokeColor=none;align=center;fillColor=none;html=1;verticalAlign=middle;whiteSpace=wrap;rounded=0;" parent="1" vertex="1">
          <mxGeometry x="50" y="150" width="120" height="30" as="geometry" />
        </mxCell>
        <mxCell id="A2Cu6Bd9uKaZjOzN5dYJ-7" value="&lt;div&gt;&lt;br&gt;&lt;/div&gt;&lt;div&gt;&lt;br&gt;&lt;/div&gt;&lt;div&gt;&lt;br&gt;&lt;/div&gt;&lt;div&gt;&lt;br&gt;&lt;/div&gt;&lt;div&gt;&lt;br&gt;&lt;/div&gt;&lt;div&gt;&lt;br&gt;&lt;/div&gt;&lt;div&gt;&lt;br&gt;&lt;/div&gt;&lt;div&gt;&lt;br&gt;&lt;/div&gt;&lt;div&gt;&lt;br&gt;&lt;/div&gt;&lt;div&gt;&lt;br&gt;&lt;/div&gt;&lt;div style=&quot;text-align: left;&quot;&gt;&lt;br&gt;&lt;/div&gt;" style="rounded=0;whiteSpace=wrap;html=1;" parent="1" vertex="1">
          <mxGeometry x="40" y="180" width="140" height="300" as="geometry" />
        </mxCell>
        <mxCell id="A2Cu6Bd9uKaZjOzN5dYJ-10" value="Выбор критериев поиска информации о разультатах&lt;div&gt;аттестации&lt;/div&gt;" style="text;strokeColor=none;align=center;fillColor=none;html=1;verticalAlign=middle;whiteSpace=wrap;rounded=0;" parent="1" vertex="1">
          <mxGeometry x="47.5" y="200" width="120" height="30" as="geometry" />
        </mxCell>
        <mxCell id="A2Cu6Bd9uKaZjOzN5dYJ-13" value="Получение&lt;div&gt;информации 0 результатах&lt;/div&gt;&lt;div&gt;аттестации&lt;/div&gt;" style="text;strokeColor=none;align=center;fillColor=none;html=1;verticalAlign=middle;whiteSpace=wrap;rounded=0;" parent="1" vertex="1">
          <mxGeometry x="40" y="280" width="130" height="30" as="geometry" />
        </mxCell>
        <mxCell id="A2Cu6Bd9uKaZjOzN5dYJ-15" value="Формирование отчетов" style="text;html=1;align=center;verticalAlign=middle;resizable=0;points=[];autosize=1;strokeColor=none;fillColor=none;" parent="1" vertex="1">
          <mxGeometry x="35" y="330" width="150" height="30" as="geometry" />
        </mxCell>
        <mxCell id="cIKN-_tGBrGk3SsRRnwc-3" value="Подсчет количества&amp;nbsp;&lt;div&gt;студентов.&lt;/div&gt;&lt;div&gt;удовлетворяющих&lt;/div&gt;&lt;div&gt;заданным критериям&lt;/div&gt;&lt;div&gt;поиска&lt;/div&gt;" style="text;strokeColor=none;align=left;fillColor=none;html=1;verticalAlign=middle;whiteSpace=wrap;rounded=0;" vertex="1" parent="1">
          <mxGeometry x="45" y="310" width="150" height="180" as="geometry" />
        </mxCell>
        <mxCell id="cIKN-_tGBrGk3SsRRnwc-29" value="" style="edgeStyle=orthogonalEdgeStyle;rounded=0;orthogonalLoop=1;jettySize=auto;html=1;" edge="1" parent="1" source="cIKN-_tGBrGk3SsRRnwc-6" target="cIKN-_tGBrGk3SsRRnwc-28">
          <mxGeometry relative="1" as="geometry" />
        </mxCell>
        <mxCell id="cIKN-_tGBrGk3SsRRnwc-6" value="" style="rounded=0;whiteSpace=wrap;html=1;strokeColor=#FF9933;fillColor=#663300;" vertex="1" parent="1">
          <mxGeometry x="200" y="80" width="120" height="40" as="geometry" />
        </mxCell>
        <mxCell id="cIKN-_tGBrGk3SsRRnwc-9" value="&lt;span style=&quot;font-size: 14px;&quot;&gt;Пользователи&lt;/span&gt;" style="text;strokeColor=none;align=center;fillColor=none;html=1;verticalAlign=middle;whiteSpace=wrap;rounded=0;" vertex="1" parent="1">
          <mxGeometry x="230" y="85" width="60" height="30" as="geometry" />
        </mxCell>
        <mxCell id="cIKN-_tGBrGk3SsRRnwc-13" value="" style="rounded=0;whiteSpace=wrap;html=1;strokeColor=#FF9933;fillColor=#663300;" vertex="1" parent="1">
          <mxGeometry x="360" width="120" height="40" as="geometry" />
        </mxCell>
        <mxCell id="cIKN-_tGBrGk3SsRRnwc-24" value="" style="edgeStyle=orthogonalEdgeStyle;rounded=0;orthogonalLoop=1;jettySize=auto;html=1;" edge="1" parent="1" source="cIKN-_tGBrGk3SsRRnwc-16">
          <mxGeometry relative="1" as="geometry">
            <mxPoint x="260" y="80" as="targetPoint" />
            <Array as="points">
              <mxPoint x="420" y="60" />
              <mxPoint x="260" y="60" />
            </Array>
          </mxGeometry>
        </mxCell>
        <mxCell id="cIKN-_tGBrGk3SsRRnwc-16" value="&lt;font style=&quot;font-size: 14px;&quot;&gt;Все точки зрения&lt;/font&gt;" style="text;html=1;align=center;verticalAlign=middle;resizable=0;points=[];autosize=1;strokeColor=none;fillColor=none;" vertex="1" parent="1">
          <mxGeometry x="350" y="5" width="140" height="30" as="geometry" />
        </mxCell>
        <mxCell id="cIKN-_tGBrGk3SsRRnwc-34" value="" style="edgeStyle=orthogonalEdgeStyle;rounded=0;orthogonalLoop=1;jettySize=auto;html=1;" edge="1" parent="1" source="cIKN-_tGBrGk3SsRRnwc-28" target="cIKN-_tGBrGk3SsRRnwc-33">
          <mxGeometry relative="1" as="geometry">
            <Array as="points">
              <mxPoint x="260" y="360" />
              <mxPoint x="260" y="360" />
            </Array>
          </mxGeometry>
        </mxCell>
        <mxCell id="cIKN-_tGBrGk3SsRRnwc-28" value="" style="rounded=0;whiteSpace=wrap;html=1;strokeColor=#FF9933;fillColor=#663300;" vertex="1" parent="1">
          <mxGeometry x="200" y="150" width="120" height="40" as="geometry" />
        </mxCell>
        <mxCell id="cIKN-_tGBrGk3SsRRnwc-36" value="" style="edgeStyle=orthogonalEdgeStyle;rounded=0;orthogonalLoop=1;jettySize=auto;html=1;" edge="1" parent="1" source="cIKN-_tGBrGk3SsRRnwc-30" target="cIKN-_tGBrGk3SsRRnwc-9">
          <mxGeometry relative="1" as="geometry" />
        </mxCell>
        <mxCell id="cIKN-_tGBrGk3SsRRnwc-30" value="&lt;font style=&quot;font-size: 14px;&quot;&gt;Сотрудники&lt;/font&gt;" style="text;strokeColor=none;align=center;fillColor=none;html=1;verticalAlign=middle;whiteSpace=wrap;rounded=0;" vertex="1" parent="1">
          <mxGeometry x="230" y="155" width="60" height="30" as="geometry" />
        </mxCell>
        <mxCell id="cIKN-_tGBrGk3SsRRnwc-33" value="" style="rounded=0;whiteSpace=wrap;html=1;strokeColor=#FF9933;fillColor=#663300;" vertex="1" parent="1">
          <mxGeometry x="200" y="400" width="120" height="40" as="geometry" />
        </mxCell>
        <mxCell id="cIKN-_tGBrGk3SsRRnwc-35" value="&lt;font style=&quot;font-size: 14px;&quot;&gt;Преподаватель&lt;/font&gt;" style="text;strokeColor=none;align=center;fillColor=none;html=1;verticalAlign=middle;whiteSpace=wrap;rounded=0;" vertex="1" parent="1">
          <mxGeometry x="230" y="405" width="60" height="30" as="geometry" />
        </mxCell>
        <mxCell id="cIKN-_tGBrGk3SsRRnwc-37" value="" style="endArrow=classic;html=1;rounded=0;entryX=0.5;entryY=0;entryDx=0;entryDy=0;" edge="1" parent="1" target="cIKN-_tGBrGk3SsRRnwc-38">
          <mxGeometry width="50" height="50" relative="1" as="geometry">
            <mxPoint x="260" y="135" as="sourcePoint" />
            <mxPoint x="630" y="135" as="targetPoint" />
            <Array as="points">
              <mxPoint x="590" y="135" />
            </Array>
          </mxGeometry>
        </mxCell>
        <mxCell id="cIKN-_tGBrGk3SsRRnwc-38" value="" style="rounded=0;whiteSpace=wrap;html=1;strokeColor=#FF9933;fillColor=#663300;" vertex="1" parent="1">
          <mxGeometry x="530" y="150" width="120" height="40" as="geometry" />
        </mxCell>
        <mxCell id="cIKN-_tGBrGk3SsRRnwc-43" value="" style="rounded=0;whiteSpace=wrap;html=1;" vertex="1" parent="1">
          <mxGeometry x="370" y="145" width="120" height="40" as="geometry" />
        </mxCell>
        <mxCell id="cIKN-_tGBrGk3SsRRnwc-62" style="edgeStyle=orthogonalEdgeStyle;rounded=0;orthogonalLoop=1;jettySize=auto;html=1;exitX=1;exitY=0.75;exitDx=0;exitDy=0;entryX=0;entryY=0.5;entryDx=0;entryDy=0;" edge="1" parent="1" source="cIKN-_tGBrGk3SsRRnwc-44" target="cIKN-_tGBrGk3SsRRnwc-38">
          <mxGeometry relative="1" as="geometry" />
        </mxCell>
        <mxCell id="cIKN-_tGBrGk3SsRRnwc-44" value="Список сервисов" style="text;strokeColor=none;align=center;fillColor=none;html=1;verticalAlign=middle;whiteSpace=wrap;rounded=0;" vertex="1" parent="1">
          <mxGeometry x="370" y="150" width="120" height="30" as="geometry" />
        </mxCell>
        <mxCell id="cIKN-_tGBrGk3SsRRnwc-45" value="" style="rounded=0;whiteSpace=wrap;html=1;" vertex="1" parent="1">
          <mxGeometry x="370" y="185" width="120" height="165" as="geometry" />
        </mxCell>
        <mxCell id="cIKN-_tGBrGk3SsRRnwc-46" value="Обслуживание ПО" style="text;strokeColor=none;align=center;fillColor=none;html=1;verticalAlign=middle;whiteSpace=wrap;rounded=0;" vertex="1" parent="1">
          <mxGeometry x="370" y="185" width="120" height="30" as="geometry" />
        </mxCell>
        <mxCell id="cIKN-_tGBrGk3SsRRnwc-48" value="Настройка прав&lt;div&gt;доступа&lt;/div&gt;&lt;div&gt;пользователей&amp;nbsp;&lt;/div&gt;" style="text;strokeColor=none;align=center;fillColor=none;html=1;verticalAlign=middle;whiteSpace=wrap;rounded=0;" vertex="1" parent="1">
          <mxGeometry x="370" y="230" width="110" height="30" as="geometry" />
        </mxCell>
        <mxCell id="cIKN-_tGBrGk3SsRRnwc-52" value="Просмотр журнала посещения" style="text;strokeColor=none;align=center;fillColor=none;html=1;verticalAlign=middle;whiteSpace=wrap;rounded=0;" vertex="1" parent="1">
          <mxGeometry x="360" y="290" width="140" height="60" as="geometry" />
        </mxCell>
        <mxCell id="cIKN-_tGBrGk3SsRRnwc-54" value="&lt;font style=&quot;font-size: 14px;&quot;&gt;Администратор&lt;/font&gt;" style="text;strokeColor=none;align=center;fillColor=none;html=1;verticalAlign=middle;whiteSpace=wrap;rounded=0;" vertex="1" parent="1">
          <mxGeometry x="560" y="155" width="60" height="30" as="geometry" />
        </mxCell>
        <mxCell id="cIKN-_tGBrGk3SsRRnwc-64" value="" style="endArrow=classic;html=1;rounded=0;" edge="1" parent="1">
          <mxGeometry width="50" height="50" relative="1" as="geometry">
            <mxPoint x="260" y="365" as="sourcePoint" />
            <mxPoint x="560" y="395" as="targetPoint" />
            <Array as="points">
              <mxPoint x="560" y="365" />
            </Array>
          </mxGeometry>
        </mxCell>
        <mxCell id="cIKN-_tGBrGk3SsRRnwc-67" value="" style="rounded=0;whiteSpace=wrap;html=1;strokeColor=#FF9933;fillColor=#663300;" vertex="1" parent="1">
          <mxGeometry x="510" y="395" width="120" height="40" as="geometry" />
        </mxCell>
        <mxCell id="cIKN-_tGBrGk3SsRRnwc-70" value="&lt;font style=&quot;font-size: 18px;&quot;&gt;Деканат&lt;/font&gt;" style="text;strokeColor=none;align=center;fillColor=none;html=1;verticalAlign=middle;whiteSpace=wrap;rounded=0;" vertex="1" parent="1">
          <mxGeometry x="540" y="400" width="60" height="30" as="geometry" />
        </mxCell>
        <mxCell id="cIKN-_tGBrGk3SsRRnwc-77" style="edgeStyle=orthogonalEdgeStyle;rounded=0;orthogonalLoop=1;jettySize=auto;html=1;exitX=1;exitY=0.5;exitDx=0;exitDy=0;entryX=0;entryY=0.5;entryDx=0;entryDy=0;" edge="1" parent="1" source="cIKN-_tGBrGk3SsRRnwc-71" target="cIKN-_tGBrGk3SsRRnwc-67">
          <mxGeometry relative="1" as="geometry" />
        </mxCell>
        <mxCell id="cIKN-_tGBrGk3SsRRnwc-71" value="" style="rounded=0;whiteSpace=wrap;html=1;" vertex="1" parent="1">
          <mxGeometry x="365" y="400" width="120" height="30" as="geometry" />
        </mxCell>
        <mxCell id="cIKN-_tGBrGk3SsRRnwc-72" value="Список сервисов" style="text;strokeColor=none;align=center;fillColor=none;html=1;verticalAlign=middle;whiteSpace=wrap;rounded=0;" vertex="1" parent="1">
          <mxGeometry x="375" y="400" width="100" height="30" as="geometry" />
        </mxCell>
        <mxCell id="cIKN-_tGBrGk3SsRRnwc-73" value="" style="rounded=0;whiteSpace=wrap;html=1;" vertex="1" parent="1">
          <mxGeometry x="365" y="430" width="120" height="80" as="geometry" />
        </mxCell>
        <mxCell id="cIKN-_tGBrGk3SsRRnwc-75" value="Управление БД ИС" style="text;strokeColor=none;align=center;fillColor=none;html=1;verticalAlign=middle;whiteSpace=wrap;rounded=0;" vertex="1" parent="1">
          <mxGeometry x="365" y="430" width="120" height="30" as="geometry" />
        </mxCell>
        <mxCell id="cIKN-_tGBrGk3SsRRnwc-76" value="Внесение результатов аттестации" style="text;strokeColor=none;align=center;fillColor=none;html=1;verticalAlign=middle;whiteSpace=wrap;rounded=0;" vertex="1" parent="1">
          <mxGeometry x="362.5" y="470" width="125" height="30" as="geometry" />
        </mxCell>
        <mxCell id="cIKN-_tGBrGk3SsRRnwc-78" value="" style="endArrow=classic;html=1;rounded=0;entryX=0.582;entryY=-0.043;entryDx=0;entryDy=0;entryPerimeter=0;" edge="1" parent="1" target="cIKN-_tGBrGk3SsRRnwc-79">
          <mxGeometry width="50" height="50" relative="1" as="geometry">
            <mxPoint x="420" y="60" as="sourcePoint" />
            <mxPoint x="880" y="80" as="targetPoint" />
            <Array as="points">
              <mxPoint x="920" y="60" />
            </Array>
          </mxGeometry>
        </mxCell>
        <mxCell id="cIKN-_tGBrGk3SsRRnwc-79" value="" style="rounded=0;whiteSpace=wrap;html=1;strokeColor=#FF9933;fillColor=#663300;" vertex="1" parent="1">
          <mxGeometry x="850" y="80" width="120" height="40" as="geometry" />
        </mxCell>
        <mxCell id="cIKN-_tGBrGk3SsRRnwc-81" value="" style="rounded=0;whiteSpace=wrap;html=1;" vertex="1" parent="1">
          <mxGeometry x="680" y="80" width="120" height="30" as="geometry" />
        </mxCell>
        <mxCell id="cIKN-_tGBrGk3SsRRnwc-82" value="&lt;font style=&quot;font-size: 14px;&quot;&gt;БД ИС&lt;/font&gt;" style="text;strokeColor=none;align=center;fillColor=none;html=1;verticalAlign=middle;whiteSpace=wrap;rounded=0;" vertex="1" parent="1">
          <mxGeometry x="880" y="80" width="60" height="30" as="geometry" />
        </mxCell>
        <mxCell id="cIKN-_tGBrGk3SsRRnwc-83" value="Список сервисов" style="text;strokeColor=none;align=center;fillColor=none;html=1;verticalAlign=middle;whiteSpace=wrap;rounded=0;" vertex="1" parent="1">
          <mxGeometry x="690" y="80" width="100" height="30" as="geometry" />
        </mxCell>
        <mxCell id="cIKN-_tGBrGk3SsRRnwc-84" value="" style="rounded=0;whiteSpace=wrap;html=1;" vertex="1" parent="1">
          <mxGeometry x="680" y="110" width="120" height="300" as="geometry" />
        </mxCell>
        <mxCell id="cIKN-_tGBrGk3SsRRnwc-85" value="Аутентификация&amp;nbsp;&lt;div&gt;пользователя&lt;/div&gt;" style="text;strokeColor=none;align=left;fillColor=none;html=1;verticalAlign=middle;whiteSpace=wrap;rounded=0;" vertex="1" parent="1">
          <mxGeometry x="680" y="110" width="60" height="30" as="geometry" />
        </mxCell>
        <mxCell id="cIKN-_tGBrGk3SsRRnwc-86" value="Реализация обработки&lt;div&gt;запросов&lt;/div&gt;&lt;div&gt;пользователей&lt;/div&gt;" style="text;strokeColor=none;align=left;fillColor=none;html=1;verticalAlign=middle;whiteSpace=wrap;rounded=0;" vertex="1" parent="1">
          <mxGeometry x="680" y="160" width="120" height="30" as="geometry" />
        </mxCell>
        <mxCell id="cIKN-_tGBrGk3SsRRnwc-89" value="Предоставление данных" style="text;strokeColor=none;align=left;fillColor=none;html=1;verticalAlign=middle;whiteSpace=wrap;rounded=0;" vertex="1" parent="1">
          <mxGeometry x="680" y="210" width="60" height="30" as="geometry" />
        </mxCell>
        <mxCell id="cIKN-_tGBrGk3SsRRnwc-91" value="Реализация управления&amp;nbsp;&lt;div&gt;информацией щ результатах&lt;/div&gt;&lt;div&gt;аттестации студентов,&lt;/div&gt;&lt;div&gt;учебная плане и поручениях&lt;/div&gt;" style="text;strokeColor=none;align=left;fillColor=none;html=1;verticalAlign=middle;whiteSpace=wrap;rounded=0;" vertex="1" parent="1">
          <mxGeometry x="680" y="230" width="110" height="155" as="geometry" />
        </mxCell>
        <mxCell id="cIKN-_tGBrGk3SsRRnwc-95" value="Интеграция с БД ВУЗа" style="text;strokeColor=none;align=left;fillColor=none;html=1;verticalAlign=middle;whiteSpace=wrap;rounded=0;" vertex="1" parent="1">
          <mxGeometry x="680" y="380" width="110" height="20" as="geometry" />
        </mxCell>
        <mxCell id="cIKN-_tGBrGk3SsRRnwc-97" value="" style="endArrow=classic;html=1;rounded=0;entryX=0;entryY=0.5;entryDx=0;entryDy=0;" edge="1" parent="1" target="cIKN-_tGBrGk3SsRRnwc-79">
          <mxGeometry width="50" height="50" relative="1" as="geometry">
            <mxPoint x="800" y="100" as="sourcePoint" />
            <mxPoint x="850" y="50" as="targetPoint" />
          </mxGeometry>
        </mxCell>
      </root>
    </mxGraphModel>
  </diagram>
</mxfile>
